<?xml version="1.0" encoding="UTF-8"?><svg id="Layer_1" xmlns="http://www.w3.org/2000/svg" viewBox="0 0 234.8 254.72"><defs><style>.cls-1{stroke-width:3.61px;}.cls-1,.cls-2{fill:none;stroke:#231f20;stroke-miterlimit:10;}.cls-3{fill:#fff;}.cls-2{stroke-width:4px;}.cls-4{fill:#231f20;}</style></defs><path class="cls-4" d="M0,0H22.93C75.07,0,117.4,42.33,117.4,94.47h-22.93C42.33,94.47,0,52.14,0,0H0Z"/><path class="cls-4" d="M211.87,0h22.93c0,52.14-42.33,94.47-94.47,94.47h-22.93C117.4,42.33,159.73,0,211.87,0Z"/><rect class="cls-4" x="111.93" y="92.64" width="12.84" height="61.45"/><path class="cls-3" d="M14.9,11.01c19.91,1.34,40.08,7.76,55.81,20.4,.9,.63,2.04,1.77,2.88,2.49,2.82,2.39,5.59,5.37,8.06,8.09,1.07,1.36,3.09,3.86,4.13,5.22,7.46,10.46,12.74,22.55,15.8,34.88-4.64-9.5-9.52-18.66-15.49-27.13C67.64,29.51,44.44,19.15,14.9,11.01h0Z"/><path class="cls-3" d="M217.38,9.17c-29.54,8.15-52.76,18.52-71.19,43.96-5.97,8.47-10.85,17.63-15.49,27.13,3.06-12.34,8.35-24.42,15.8-34.88,1.03-1.34,3.06-3.86,4.13-5.22,2.46-2.72,5.24-5.71,8.06-8.09,.85-.72,1.98-1.86,2.88-2.49,15.72-12.64,35.9-19.06,55.81-20.4h0Z"/><polyline class="cls-2" points="120.18 149.04 84.87 161.89 80.28 201.32 64.23 215.08 64.23 238.47"/><circle class="cls-1" cx="65.5" cy="245.06" r="7.86"/><circle class="cls-1" cx="96.96" cy="204.99" r="7.86"/><circle class="cls-1" cx="162.58" cy="237.67" r="7.86"/><circle class="cls-1" cx="143.8" cy="150.79" r="7.86"/><circle class="cls-1" cx="179.57" cy="216.23" r="7.86"/><polyline class="cls-2" points="115.4 150.79 100.92 167.39 98.17 197.66"/><polyline class="cls-2" points="122.78 151.95 120.64 209.43 104.82 226.85 156.41 234.8"/><polyline class="cls-2" points="141.11 157.07 138.36 212.85 172.76 216.23"/></svg>